<?xml version="1.0" encoding="UTF-8"?>
<svg width="106px" height="165px" viewBox="0 0 106 165" version="1.1" xmlns="http://www.w3.org/2000/svg" xmlns:xlink="http://www.w3.org/1999/xlink">
    <!-- Generator: Sketch 52.6 (67491) - http://www.bohemiancoding.com/sketch -->
    <title>Group 4@2x</title>
    <desc>Created with Sketch.</desc>
    <g id="Page-1" stroke="none" stroke-width="1" fill="none" fill-rule="evenodd">
        <g id="Group-4">
            <ellipse id="Oval" fill="#146245" opacity="0.100000001" cx="53" cy="161" rx="53" ry="4"></ellipse>
            <g id="Group-3" transform="translate(28.000000, 97.500000)" fill="#28492D">
                <path d="M19,0 L19,-7.10542736e-15 C22.6545374,0.42177722 26.3454626,0.42177722 30,-7.10542736e-15 L29.569348,62.0138886 C29.5617152,63.1130116 28.6685458,64 27.5693962,64 L21.4306038,64 C20.3314542,64 19.4382848,63.1130116 19.430652,62.0138886 L19,0 Z" id="Rectangle"></path>
                <rect id="Rectangle" transform="translate(34.106390, 31.962584) rotate(-26.000000) translate(-34.106390, -31.962584) " x="20.6063898" y="27.4625837" width="27" height="9" rx="4.5"></rect>
                <rect id="Rectangle-Copy" transform="translate(14.555787, 18.681769) scale(-1, 1) rotate(-26.000000) translate(-14.555787, -18.681769) " x="0.555786809" y="14.1817693" width="28" height="9" rx="4.5"></rect>
            </g>
            <g id="Group" transform="translate(5.000000, 0.000000)">
                <g id="Group-2">
                    <path d="M46.9115991,0 C22.9204771,1.71171171e-06 24.4186374,10.4039977 24.4186374,10.4039977 L24.435482,17.192358 C24.4409541,19.397615 26.2302058,21.1824324 28.4354696,21.1824324 L45.7214245,21.1824324 C46.6150779,21.1824324 47.339527,21.9068816 47.339527,22.8005349 L47.339527,22.8005349 C47.339527,23.6941882 46.6150779,24.4186374 45.7214245,24.4186374 L15.3519144,24.4186374 C15.3519144,24.4186374 0,22.6775904 0,46.8848536 C-1.71171171e-06,71.0921117 13.3994932,70.2336712 13.3994932,70.2336712 L18.3963964,70.2336712 C20.0532506,70.2336712 21.3963964,68.8905254 21.3963964,67.2336712 C21.3963964,64.4893018 21.3963964,61.7449324 21.3963964,59.0005631 C21.3963964,56.9529655 23.2661782,45.6010698 37.6576577,45.6010698 C52.0491371,45.6010698 57.2888514,45.6010698 57.2888514,45.6010698 C57.2888514,45.6010698 70.0464527,45.8072968 70.0464527,33.2713964 C70.0464527,20.7354994 70.0464527,12.5436374 70.0464527,12.5436374 C70.0464527,12.5436357 71.9834086,0 46.9115991,0 Z" id="path8615-copy" fill="#33D498" fill-rule="nonzero"></path>
                    <path d="M47.9893688,94.2014063 C71.9804976,94.2014063 70.4823305,83.7974085 70.4823305,83.7974085 L70.465486,77.0090483 C70.4600139,74.8037913 68.6707621,73.0189738 66.4654983,73.0189738 L49.1795434,73.0189738 C48.28589,73.0189738 47.5614409,72.2945247 47.5614409,71.4008714 L47.5614409,71.4008714 C47.5614409,70.507218 48.28589,69.7827689 49.1795434,69.7827689 L79.5490535,69.7827689 C79.5490535,69.7827689 94.9009679,71.5238108 94.9009679,47.3165441 C94.9009765,23.1092886 81.5014747,23.9677291 81.5014747,23.9677291 L76.5045715,23.9677291 C74.8477173,23.9677291 73.5045715,25.3108749 73.5045715,26.9677291 C73.5045715,29.4285183 73.5045715,31.8893074 73.5045715,34.3500966 C73.5045715,36.3647846 72.2951638,48.6003279 58.7476301,48.6003279 C45.2000963,48.6003279 37.6121149,48.6003279 37.6121149,48.6003279 C37.6121149,48.6003279 24.8545135,48.3941009 24.8545135,60.9300099 C24.8545135,73.4659018 24.8545135,81.6577689 24.8545135,81.6577689 C24.8545135,81.6577689 22.9175576,94.2014063 47.9893688,94.2014063 Z" id="path8620-copy" fill="#33D498" fill-rule="nonzero"></path>
                    <circle id="Oval" fill="#FFFFFF" cx="32.5990991" cy="12.2027027" r="3.5"></circle>
                    <circle id="Oval-Copy" fill="#FFFFFF" cx="62.8423423" cy="81.3828829" r="3.5"></circle>
                </g>
            </g>
        </g>
    </g>
</svg>